# xmcd
#
# Track frame offsets: 
#        150
#        16665
#        37590
#        63282
#        77065
#        107090
#        129850
#        150430
#        177742
#        221210
#        233615
#        247805
#        275390
#        294695
#        307140
#
# Disc length: 4261 seconds
#
# Revision: 0
# Processed by: cddbd v1.5.2PL0 Copyright (c) Steve Scherf et al.
# Submitted via: ExactAudioCopy v1.0b1
#
DISCID=c110a30f
DTITLE=江蘇省歌舞劇院民族樂團 - 中國名曲發燒天碟
DYEAR=1997
DGENRE=中樂
TTITLE0=紫竹調
TTITLE1=歡樂歌
TTITLE2=霓裳曲
TTITLE3=寒鴉戲水
TTITLE4=彝族舞曲
TTITLE5=三五七
TTITLE6=雙聲恨
TTITLE7=二泉映月
TTITLE8=春江花月夜
TTITLE9=金蛇狂舞
TTITLE10=關山月
TTITLE11=行街
TTITLE12=三六
TTITLE13=喜洋洋
TTITLE14=花好月圓
EXTD=
EXTT0=
EXTT1=
EXTT2=
EXTT3=
EXTT4=
EXTT5=
EXTT6=
EXTT7=
EXTT8=
EXTT9=
EXTT10=
EXTT11=
EXTT12=
EXTT13=
EXTT14=
PLAYORDER=
